<?xml version="1.0" encoding="UTF-8"?>
<!DOCTYPE svg PUBLIC "-//W3C//DTD SVG 1.1//EN" "http://www.w3.org/Graphics/SVG/1.1/DTD/svg11.dtd">
<!-- Creator: CorelDRAW 2021 (64-Bit) -->
<svg xmlns="http://www.w3.org/2000/svg" xml:space="preserve" width="1.46699in" height="1.65711in" version="1.1" style="shape-rendering:geometricPrecision; text-rendering:geometricPrecision; image-rendering:optimizeQuality; fill-rule:evenodd; clip-rule:evenodd"
viewBox="0 0 117.05 132.22"
 xmlns:xlink="http://www.w3.org/1999/xlink"
 xmlns:xodm="http://www.corel.com/coreldraw/odm/2003">
 <defs>
  <style type="text/css">
   <![CDATA[
    .fil1 {fill:#0000CF;fill-rule:nonzero}
    .fil0 {fill:blue;fill-rule:nonzero}
    .fil5 {fill:#29A629;fill-rule:nonzero}
    .fil4 {fill:#33CC33;fill-rule:nonzero}
    .fil3 {fill:#CF5300;fill-rule:nonzero}
    .fil2 {fill:#FF6600;fill-rule:nonzero}
   ]]>
  </style>
 </defs>
 <g id="Layer_x0020_1">
  <metadata id="CorelCorpID_0Corel-Layer"/>
  <g id="_1287411184288">
   <path class="fil0" d="M21.93 3.8c8.6,-1.08 17.01,5.56 23.65,17.15 6.05,10.57 10.85,25.54 12.96,42.39 2.11,16.82 1.15,32.5 -2.11,44.25 -3.57,12.88 -10.09,21.39 -18.7,22.47 -8.6,1.08 -17.01,-5.56 -23.65,-17.15 -6.05,-10.57 -10.85,-25.54 -12.96,-42.39 -2.11,-16.82 -1.15,-32.5 2.11,-44.25 3.57,-12.88 10.09,-21.39 18.7,-22.47zm16.51 21.24c-4.95,-8.65 -10.51,-13.69 -15.51,-13.07 -4.98,0.62 -9.12,6.88 -11.78,16.48 -2.97,10.71 -3.82,25.19 -1.87,40.93l0.03 0.24c1.98,15.71 6.39,29.54 11.92,39.2 4.95,8.65 10.51,13.69 15.51,13.07 4.98,-0.62 9.12,-6.88 11.79,-16.48 2.98,-10.74 3.83,-25.27 1.85,-41.06l-0 -0.01c-1.97,-15.75 -6.39,-29.62 -11.93,-39.3z"/>
   <path class="fil1" d="M21.93 3.8c8.6,-1.08 17.01,5.56 23.65,17.15 3.85,6.73 7.2,15.25 9.67,24.9l-7.41 4.3c-2.32,-9.85 -5.59,-18.47 -9.39,-25.11 -4.95,-8.65 -10.51,-13.69 -15.51,-13.07 -4.98,0.62 -9.12,6.88 -11.78,16.48 -2.97,10.71 -3.82,25.19 -1.87,40.93l0.03 0.24c0.11,0.89 0.23,1.77 0.36,2.65l-7.64 4.42c-0.34,-2.03 -0.65,-4.09 -0.91,-6.18 -2.11,-16.82 -1.15,-32.5 2.11,-44.25 3.57,-12.88 10.09,-21.39 18.7,-22.47z"/>
   <path class="fil2" d="M77.54 1.69c6.4,3.64 8.77,12.27 7.42,23.29 -1.2,9.83 -5.36,21.92 -12.19,33.94 -6.82,12 -15.08,21.76 -22.93,27.84 -8.77,6.8 -17.4,9.18 -23.79,5.55 -6.4,-3.64 -8.77,-12.27 -7.42,-23.29 1.2,-9.83 5.36,-21.92 12.19,-33.94l0.01 -0.01c6.82,-12 15.08,-21.75 22.92,-27.83 8.77,-6.8 17.4,-9.18 23.79,-5.55zm-0.75 22.29c0.94,-7.67 -0.09,-13.32 -3.3,-15.15 -3.22,-1.83 -8.61,0.18 -14.72,4.91 -6.98,5.41 -14.41,14.2 -20.65,25.13 -0.09,0.18 -0.19,0.36 -0.3,0.53 -6.18,10.95 -9.93,21.83 -11.01,30.62 -0.94,7.67 0.09,13.32 3.3,15.15 3.22,1.83 8.61,-0.18 14.72,-4.91 7.04,-5.45 14.53,-14.34 20.81,-25.39 6.27,-11.04 10.07,-22.03 11.16,-30.88z"/>
   <path class="fil3" d="M77.54 1.69c6.4,3.64 8.77,12.27 7.42,23.29 -1.03,8.46 -4.26,18.58 -9.48,28.9l-7.79 -2.8c5.05,-9.74 8.14,-19.26 9.1,-27.1 0.94,-7.67 -0.09,-13.32 -3.3,-15.15 -3.22,-1.83 -8.61,0.18 -14.72,4.91 -6.98,5.41 -14.41,14.2 -20.65,25.13 -0.09,0.18 -0.19,0.36 -0.3,0.53l-0.45 0.8 -7.82 -2.81c0.41,-0.77 0.84,-1.54 1.28,-2.31l0.01 -0.01c6.82,-12 15.08,-21.75 22.92,-27.83 8.77,-6.8 17.4,-9.18 23.79,-5.55z"/>
   <path class="fil4" d="M110.98 30.45c6.71,5.52 7.67,16.19 3.8,28.97 -3.52,11.63 -11.1,25.39 -21.91,38.52 -10.8,13.12 -22.86,23.19 -33.62,28.89 -11.8,6.24 -22.45,7.35 -29.14,1.83 -6.71,-5.52 -7.67,-16.19 -3.8,-28.97 3.52,-11.63 11.1,-25.39 21.91,-38.52l0 -0c10.8,-13.11 22.86,-23.19 33.61,-28.89 11.8,-6.24 22.45,-7.35 29.14,-1.83zm-4.08 26.59c2.89,-9.56 2.74,-17.06 -1.13,-20.25 -3.88,-3.2 -11.28,-1.91 -20.11,2.76 -9.8,5.18 -20.86,14.44 -30.89,26.57 -0.13,0.18 -0.27,0.36 -0.43,0.52 -9.97,12.16 -16.94,24.8 -20.15,35.42 -2.89,9.56 -2.74,17.06 1.13,20.25 3.88,3.2 11.28,1.91 20.11,-2.76 9.87,-5.22 21.02,-14.58 31.11,-26.83 10.08,-12.24 17.13,-24.98 20.37,-35.68z"/>
   <path class="fil5" d="M110.98 30.45c6.71,5.52 7.67,16.19 3.8,28.97 -3.52,11.63 -11.1,25.39 -21.91,38.52 -0.66,0.8 -1.32,1.58 -1.98,2.36l-4.97 -6.82 0.62 -0.74c10.08,-12.24 17.13,-24.98 20.37,-35.68 2.89,-9.56 2.74,-17.06 -1.13,-20.25 -3.88,-3.2 -11.28,-1.91 -20.11,2.76 -7.83,4.14 -16.47,10.89 -24.74,19.62l-4.91 -6.73c8.61,-8.88 17.59,-15.81 25.82,-20.16 11.8,-6.24 22.45,-7.35 29.14,-1.83z"/>
   <path class="fil2" d="M83.91 31.05c-1.89,8.53 -5.65,18.22 -11.13,27.87 -0.53,0.94 -1.08,1.86 -1.63,2.77 -2.49,-1.32 -4.6,-3.32 -6.13,-5.76 0.21,-0.35 0.41,-0.71 0.61,-1.06 4.88,-8.58 8.26,-17.14 10.04,-24.69 0.84,-0.15 1.71,-0.22 2.59,-0.22 1.99,0 3.89,0.39 5.65,1.1z"/>
   <path class="fil1" d="M38.59 11.31c2.48,2.63 4.82,5.87 6.98,9.64 3.14,5.49 5.94,12.16 8.21,19.66 -1.98,0.95 -4.19,1.47 -6.51,1.47 -0.56,0 -1.12,-0.03 -1.67,-0.09 -2.02,-6.47 -4.46,-12.22 -7.17,-16.96 -1.68,-2.93 -3.43,-5.45 -5.2,-7.48 1.26,-2.54 3.11,-4.69 5.36,-6.25z"/>
   <path class="fil0" d="M51.29 119.95c-3.55,5.81 -8.14,9.43 -13.57,10.11 -7.58,0.95 -15.01,-4.09 -21.21,-13.23 1.42,-2.55 3.35,-4.74 5.63,-6.43 4.71,7.69 9.89,12.08 14.58,11.49 3.72,-0.47 6.96,-4.06 9.48,-9.84 2.24,2.15 4,4.85 5.09,7.9z"/>
  </g>
 </g>
</svg>
